<mxfile host="app.diagrams.net" agent="Mozilla/5.0 (X11; Linux x86_64; rv:135.0) Gecko/20100101 Firefox/135.0" version="26.0.16">
  <diagram name="Page-1" id="z6yH7UmO6E86RNjmYcne">
    <mxGraphModel dx="2537" dy="974" grid="1" gridSize="10" guides="1" tooltips="1" connect="1" arrows="1" fold="1" page="1" pageScale="1" pageWidth="850" pageHeight="1100" math="0" shadow="0">
      <root>
        <mxCell id="0" />
        <mxCell id="1" parent="0" />
        <mxCell id="UyPcug_hA5FNu7lXV_sg-15" value="" style="group;strokeColor=none;" vertex="1" connectable="0" parent="1">
          <mxGeometry x="-590" y="170" width="425" height="400" as="geometry" />
        </mxCell>
        <mxCell id="UyPcug_hA5FNu7lXV_sg-14" value="" style="ellipse;whiteSpace=wrap;html=1;aspect=fixed;fillColor=none;strokeWidth=2;strokeColor=light-dark(#deddda, #ededed);dashed=1;" vertex="1" parent="UyPcug_hA5FNu7lXV_sg-15">
          <mxGeometry width="400" height="400" as="geometry" />
        </mxCell>
        <mxCell id="UyPcug_hA5FNu7lXV_sg-12" value="" style="ellipse;whiteSpace=wrap;html=1;aspect=fixed;fillColor=none;strokeWidth=2;strokeColor=light-dark(#deddda, #ededed);dashed=1;" vertex="1" parent="UyPcug_hA5FNu7lXV_sg-15">
          <mxGeometry x="40" y="40" width="320" height="320" as="geometry" />
        </mxCell>
        <mxCell id="UyPcug_hA5FNu7lXV_sg-11" value="" style="ellipse;whiteSpace=wrap;html=1;aspect=fixed;fillColor=none;strokeWidth=2;strokeColor=light-dark(#deddda, #ededed);dashed=1;" vertex="1" parent="UyPcug_hA5FNu7lXV_sg-15">
          <mxGeometry x="80" y="80" width="240" height="240" as="geometry" />
        </mxCell>
        <mxCell id="UyPcug_hA5FNu7lXV_sg-9" value="" style="ellipse;whiteSpace=wrap;html=1;aspect=fixed;fillColor=none;strokeWidth=2;strokeColor=light-dark(#deddda, #ededed);dashed=1;" vertex="1" parent="UyPcug_hA5FNu7lXV_sg-15">
          <mxGeometry x="120" y="120" width="160" height="160" as="geometry" />
        </mxCell>
        <mxCell id="UyPcug_hA5FNu7lXV_sg-18" value="G H I" style="text;html=1;align=center;verticalAlign=middle;whiteSpace=wrap;rounded=0;fontSize=18;fontStyle=0" vertex="1" parent="UyPcug_hA5FNu7lXV_sg-15">
          <mxGeometry x="150" y="10" width="100" height="30" as="geometry" />
        </mxCell>
        <mxCell id="UyPcug_hA5FNu7lXV_sg-20" style="edgeStyle=none;rounded=0;orthogonalLoop=1;jettySize=auto;html=1;exitX=0;exitY=0;exitDx=0;exitDy=0;entryX=1;entryY=1;entryDx=0;entryDy=0;strokeWidth=2;endArrow=none;startFill=0;" edge="1" parent="UyPcug_hA5FNu7lXV_sg-15" source="UyPcug_hA5FNu7lXV_sg-14" target="UyPcug_hA5FNu7lXV_sg-14">
          <mxGeometry relative="1" as="geometry" />
        </mxCell>
        <mxCell id="UyPcug_hA5FNu7lXV_sg-21" style="edgeStyle=none;rounded=0;orthogonalLoop=1;jettySize=auto;html=1;exitX=1;exitY=0;exitDx=0;exitDy=0;entryX=0;entryY=1;entryDx=0;entryDy=0;strokeWidth=2;endArrow=none;startFill=0;" edge="1" parent="UyPcug_hA5FNu7lXV_sg-15" source="UyPcug_hA5FNu7lXV_sg-14" target="UyPcug_hA5FNu7lXV_sg-14">
          <mxGeometry relative="1" as="geometry" />
        </mxCell>
        <mxCell id="UyPcug_hA5FNu7lXV_sg-6" value="" style="ellipse;whiteSpace=wrap;html=1;aspect=fixed;strokeWidth=2;" vertex="1" parent="UyPcug_hA5FNu7lXV_sg-15">
          <mxGeometry x="160" y="160" width="80" height="80" as="geometry" />
        </mxCell>
        <mxCell id="UyPcug_hA5FNu7lXV_sg-16" value="A B C" style="text;html=1;align=center;verticalAlign=middle;whiteSpace=wrap;rounded=0;fontSize=18;fontStyle=0" vertex="1" parent="UyPcug_hA5FNu7lXV_sg-15">
          <mxGeometry x="150" y="90" width="100" height="30" as="geometry" />
        </mxCell>
        <mxCell id="UyPcug_hA5FNu7lXV_sg-17" value="D E F" style="text;html=1;align=center;verticalAlign=middle;whiteSpace=wrap;rounded=0;fontSize=18;fontStyle=0" vertex="1" parent="UyPcug_hA5FNu7lXV_sg-15">
          <mxGeometry x="150" y="50" width="100" height="30" as="geometry" />
        </mxCell>
        <mxCell id="UyPcug_hA5FNu7lXV_sg-19" value="J K L" style="text;html=1;align=center;verticalAlign=middle;whiteSpace=wrap;rounded=0;fontSize=18;fontStyle=0;rotation=-90;" vertex="1" parent="UyPcug_hA5FNu7lXV_sg-15">
          <mxGeometry x="55" y="185" width="100" height="30" as="geometry" />
        </mxCell>
        <mxCell id="UyPcug_hA5FNu7lXV_sg-22" value="M N O" style="text;html=1;align=center;verticalAlign=middle;whiteSpace=wrap;rounded=0;fontSize=18;fontStyle=0;rotation=-90;" vertex="1" parent="UyPcug_hA5FNu7lXV_sg-15">
          <mxGeometry x="15" y="185" width="100" height="30" as="geometry" />
        </mxCell>
        <mxCell id="UyPcug_hA5FNu7lXV_sg-23" value="P Q R" style="text;html=1;align=center;verticalAlign=middle;whiteSpace=wrap;rounded=0;fontSize=18;fontStyle=0;rotation=-90;" vertex="1" parent="UyPcug_hA5FNu7lXV_sg-15">
          <mxGeometry x="-25" y="185" width="100" height="30" as="geometry" />
        </mxCell>
        <mxCell id="UyPcug_hA5FNu7lXV_sg-24" value="S T U" style="text;html=1;align=center;verticalAlign=middle;whiteSpace=wrap;rounded=0;fontSize=18;fontStyle=0" vertex="1" parent="UyPcug_hA5FNu7lXV_sg-15">
          <mxGeometry x="150" y="280" width="100" height="30" as="geometry" />
        </mxCell>
        <mxCell id="UyPcug_hA5FNu7lXV_sg-25" value="V W X" style="text;html=1;align=center;verticalAlign=middle;whiteSpace=wrap;rounded=0;fontSize=18;fontStyle=0" vertex="1" parent="UyPcug_hA5FNu7lXV_sg-15">
          <mxGeometry x="150" y="320" width="100" height="30" as="geometry" />
        </mxCell>
        <mxCell id="UyPcug_hA5FNu7lXV_sg-26" value="Y Z" style="text;html=1;align=center;verticalAlign=middle;whiteSpace=wrap;rounded=0;fontSize=18;fontStyle=0" vertex="1" parent="UyPcug_hA5FNu7lXV_sg-15">
          <mxGeometry x="150" y="360" width="100" height="30" as="geometry" />
        </mxCell>
        <mxCell id="UyPcug_hA5FNu7lXV_sg-28" value="小写" style="text;html=1;align=center;verticalAlign=middle;whiteSpace=wrap;rounded=0;fontSize=18;fontStyle=0;rotation=90;" vertex="1" parent="UyPcug_hA5FNu7lXV_sg-15">
          <mxGeometry x="245" y="185" width="100" height="30" as="geometry" />
        </mxCell>
        <mxCell id="UyPcug_hA5FNu7lXV_sg-29" value="符号" style="text;html=1;align=center;verticalAlign=middle;whiteSpace=wrap;rounded=0;fontSize=18;fontStyle=0;rotation=90;" vertex="1" parent="UyPcug_hA5FNu7lXV_sg-15">
          <mxGeometry x="285" y="185" width="100" height="30" as="geometry" />
        </mxCell>
        <mxCell id="UyPcug_hA5FNu7lXV_sg-30" value="表情" style="text;html=1;align=center;verticalAlign=middle;whiteSpace=wrap;rounded=0;fontSize=18;fontStyle=0;rotation=90;" vertex="1" parent="UyPcug_hA5FNu7lXV_sg-15">
          <mxGeometry x="325" y="185" width="100" height="30" as="geometry" />
        </mxCell>
        <mxCell id="UyPcug_hA5FNu7lXV_sg-27" value="筷字输入法 X 型输入交互设计" style="text;html=1;align=center;verticalAlign=middle;whiteSpace=wrap;rounded=0;fontSize=28;fontStyle=0" vertex="1" parent="1">
          <mxGeometry x="20" y="20" width="490" height="60" as="geometry" />
        </mxCell>
        <mxCell id="UyPcug_hA5FNu7lXV_sg-31" value="" style="group;strokeColor=none;" vertex="1" connectable="0" parent="1">
          <mxGeometry x="40" y="160" width="425" height="400" as="geometry" />
        </mxCell>
        <mxCell id="UyPcug_hA5FNu7lXV_sg-32" value="" style="ellipse;whiteSpace=wrap;html=1;aspect=fixed;fillColor=none;strokeWidth=2;strokeColor=light-dark(#deddda, #ededed);dashed=1;" vertex="1" parent="UyPcug_hA5FNu7lXV_sg-31">
          <mxGeometry width="400" height="400" as="geometry" />
        </mxCell>
        <mxCell id="UyPcug_hA5FNu7lXV_sg-33" value="" style="ellipse;whiteSpace=wrap;html=1;aspect=fixed;fillColor=none;strokeWidth=2;strokeColor=light-dark(#deddda, #ededed);dashed=1;" vertex="1" parent="UyPcug_hA5FNu7lXV_sg-31">
          <mxGeometry x="40" y="40" width="320" height="320" as="geometry" />
        </mxCell>
        <mxCell id="UyPcug_hA5FNu7lXV_sg-34" value="" style="ellipse;whiteSpace=wrap;html=1;aspect=fixed;fillColor=none;strokeWidth=2;strokeColor=light-dark(#deddda, #ededed);dashed=1;" vertex="1" parent="UyPcug_hA5FNu7lXV_sg-31">
          <mxGeometry x="80" y="80" width="240" height="240" as="geometry" />
        </mxCell>
        <mxCell id="UyPcug_hA5FNu7lXV_sg-35" value="" style="ellipse;whiteSpace=wrap;html=1;aspect=fixed;fillColor=none;strokeWidth=2;strokeColor=light-dark(#deddda, #ededed);dashed=1;" vertex="1" parent="UyPcug_hA5FNu7lXV_sg-31">
          <mxGeometry x="120" y="120" width="160" height="160" as="geometry" />
        </mxCell>
        <mxCell id="UyPcug_hA5FNu7lXV_sg-36" value="G H I" style="text;html=1;align=center;verticalAlign=middle;whiteSpace=wrap;rounded=0;fontSize=22;fontStyle=1" vertex="1" parent="UyPcug_hA5FNu7lXV_sg-31">
          <mxGeometry x="150" y="10" width="100" height="30" as="geometry" />
        </mxCell>
        <mxCell id="UyPcug_hA5FNu7lXV_sg-37" style="edgeStyle=none;rounded=0;orthogonalLoop=1;jettySize=auto;html=1;exitX=0;exitY=0;exitDx=0;exitDy=0;entryX=1;entryY=1;entryDx=0;entryDy=0;strokeWidth=2;endArrow=none;startFill=0;" edge="1" parent="UyPcug_hA5FNu7lXV_sg-31" source="UyPcug_hA5FNu7lXV_sg-32" target="UyPcug_hA5FNu7lXV_sg-32">
          <mxGeometry relative="1" as="geometry" />
        </mxCell>
        <mxCell id="UyPcug_hA5FNu7lXV_sg-38" style="edgeStyle=none;rounded=0;orthogonalLoop=1;jettySize=auto;html=1;exitX=1;exitY=0;exitDx=0;exitDy=0;entryX=0;entryY=1;entryDx=0;entryDy=0;strokeWidth=2;endArrow=none;startFill=0;" edge="1" parent="UyPcug_hA5FNu7lXV_sg-31" source="UyPcug_hA5FNu7lXV_sg-32" target="UyPcug_hA5FNu7lXV_sg-32">
          <mxGeometry relative="1" as="geometry" />
        </mxCell>
        <mxCell id="UyPcug_hA5FNu7lXV_sg-39" value="" style="ellipse;whiteSpace=wrap;html=1;aspect=fixed;strokeWidth=2;fontColor=light-dark(#9a9996, #ededed);" vertex="1" parent="UyPcug_hA5FNu7lXV_sg-31">
          <mxGeometry x="160" y="160" width="80" height="80" as="geometry" />
        </mxCell>
        <mxCell id="UyPcug_hA5FNu7lXV_sg-41" value="D E F" style="text;html=1;align=center;verticalAlign=middle;whiteSpace=wrap;rounded=0;fontSize=22;fontStyle=1" vertex="1" parent="UyPcug_hA5FNu7lXV_sg-31">
          <mxGeometry x="150" y="50" width="100" height="30" as="geometry" />
        </mxCell>
        <mxCell id="UyPcug_hA5FNu7lXV_sg-42" value="J K L" style="text;html=1;align=center;verticalAlign=middle;whiteSpace=wrap;rounded=0;fontSize=18;fontStyle=0;rotation=-90;fontColor=light-dark(#9a9996, #ededed);" vertex="1" parent="UyPcug_hA5FNu7lXV_sg-31">
          <mxGeometry x="55" y="185" width="100" height="30" as="geometry" />
        </mxCell>
        <mxCell id="UyPcug_hA5FNu7lXV_sg-43" value="M N O" style="text;html=1;align=center;verticalAlign=middle;whiteSpace=wrap;rounded=0;fontSize=18;fontStyle=0;rotation=-90;fontColor=light-dark(#9a9996, #ededed);" vertex="1" parent="UyPcug_hA5FNu7lXV_sg-31">
          <mxGeometry x="15" y="185" width="100" height="30" as="geometry" />
        </mxCell>
        <mxCell id="UyPcug_hA5FNu7lXV_sg-44" value="P Q R" style="text;html=1;align=center;verticalAlign=middle;whiteSpace=wrap;rounded=0;fontSize=18;fontStyle=0;rotation=-90;fontColor=light-dark(#9a9996, #ededed);" vertex="1" parent="UyPcug_hA5FNu7lXV_sg-31">
          <mxGeometry x="-25" y="185" width="100" height="30" as="geometry" />
        </mxCell>
        <mxCell id="UyPcug_hA5FNu7lXV_sg-45" value="S T U" style="text;html=1;align=center;verticalAlign=middle;whiteSpace=wrap;rounded=0;fontSize=18;fontStyle=0;fontColor=light-dark(#9a9996, #ededed);" vertex="1" parent="UyPcug_hA5FNu7lXV_sg-31">
          <mxGeometry x="150" y="280" width="100" height="30" as="geometry" />
        </mxCell>
        <mxCell id="UyPcug_hA5FNu7lXV_sg-46" value="V W X" style="text;html=1;align=center;verticalAlign=middle;whiteSpace=wrap;rounded=0;fontSize=18;fontStyle=0;fontColor=light-dark(#9a9996, #ededed);" vertex="1" parent="UyPcug_hA5FNu7lXV_sg-31">
          <mxGeometry x="150" y="320" width="100" height="30" as="geometry" />
        </mxCell>
        <mxCell id="UyPcug_hA5FNu7lXV_sg-47" value="Y Z" style="text;html=1;align=center;verticalAlign=middle;whiteSpace=wrap;rounded=0;fontSize=18;fontStyle=0;fontColor=light-dark(#9a9996, #ededed);" vertex="1" parent="UyPcug_hA5FNu7lXV_sg-31">
          <mxGeometry x="150" y="360" width="100" height="30" as="geometry" />
        </mxCell>
        <mxCell id="UyPcug_hA5FNu7lXV_sg-48" value="小写" style="text;html=1;align=center;verticalAlign=middle;whiteSpace=wrap;rounded=0;fontSize=18;fontStyle=0;rotation=90;fontColor=light-dark(#9a9996, #ededed);" vertex="1" parent="UyPcug_hA5FNu7lXV_sg-31">
          <mxGeometry x="245" y="185" width="100" height="30" as="geometry" />
        </mxCell>
        <mxCell id="UyPcug_hA5FNu7lXV_sg-49" value="符号" style="text;html=1;align=center;verticalAlign=middle;whiteSpace=wrap;rounded=0;fontSize=18;fontStyle=0;rotation=90;fontColor=light-dark(#9a9996, #ededed);" vertex="1" parent="UyPcug_hA5FNu7lXV_sg-31">
          <mxGeometry x="285" y="185" width="100" height="30" as="geometry" />
        </mxCell>
        <mxCell id="UyPcug_hA5FNu7lXV_sg-50" value="表情" style="text;html=1;align=center;verticalAlign=middle;whiteSpace=wrap;rounded=0;fontSize=18;fontStyle=0;rotation=90;fontColor=light-dark(#9a9996, #ededed);" vertex="1" parent="UyPcug_hA5FNu7lXV_sg-31">
          <mxGeometry x="325" y="185" width="100" height="30" as="geometry" />
        </mxCell>
        <mxCell id="UyPcug_hA5FNu7lXV_sg-40" value="A B C" style="text;html=1;align=center;verticalAlign=middle;whiteSpace=wrap;rounded=0;fontSize=22;fontStyle=1" vertex="1" parent="UyPcug_hA5FNu7lXV_sg-31">
          <mxGeometry x="150" y="90" width="100" height="30" as="geometry" />
        </mxCell>
        <mxCell id="UyPcug_hA5FNu7lXV_sg-186" value="0#" style="text;html=1;align=center;verticalAlign=middle;whiteSpace=wrap;rounded=0;fontSize=18;fontStyle=0;fontColor=light-dark(#9a9996, #ededed);" vertex="1" parent="UyPcug_hA5FNu7lXV_sg-31">
          <mxGeometry x="285" y="50" width="50" height="30" as="geometry" />
        </mxCell>
        <mxCell id="UyPcug_hA5FNu7lXV_sg-188" value="1#" style="text;html=1;align=center;verticalAlign=middle;whiteSpace=wrap;rounded=0;fontSize=18;fontStyle=0;fontColor=light-dark(#9a9996, #ededed);" vertex="1" parent="UyPcug_hA5FNu7lXV_sg-31">
          <mxGeometry x="40" y="70" width="50" height="30" as="geometry" />
        </mxCell>
        <mxCell id="UyPcug_hA5FNu7lXV_sg-189" value="2#" style="text;html=1;align=center;verticalAlign=middle;whiteSpace=wrap;rounded=0;fontSize=18;fontStyle=0;fontColor=light-dark(#9a9996, #ededed);" vertex="1" parent="UyPcug_hA5FNu7lXV_sg-31">
          <mxGeometry x="65" y="320" width="50" height="30" as="geometry" />
        </mxCell>
        <mxCell id="UyPcug_hA5FNu7lXV_sg-190" value="3#" style="text;html=1;align=center;verticalAlign=middle;whiteSpace=wrap;rounded=0;fontSize=18;fontStyle=0;fontColor=light-dark(#9a9996, #ededed);" vertex="1" parent="UyPcug_hA5FNu7lXV_sg-31">
          <mxGeometry x="310" y="290" width="50" height="30" as="geometry" />
        </mxCell>
        <mxCell id="UyPcug_hA5FNu7lXV_sg-54" value="" style="group;strokeColor=none;" vertex="1" connectable="0" parent="1">
          <mxGeometry x="560" y="160" width="425" height="400" as="geometry" />
        </mxCell>
        <mxCell id="UyPcug_hA5FNu7lXV_sg-55" value="" style="ellipse;whiteSpace=wrap;html=1;aspect=fixed;fillColor=none;strokeWidth=2;strokeColor=light-dark(#deddda, #ededed);dashed=1;" vertex="1" parent="UyPcug_hA5FNu7lXV_sg-54">
          <mxGeometry width="400" height="400" as="geometry" />
        </mxCell>
        <mxCell id="UyPcug_hA5FNu7lXV_sg-56" value="" style="ellipse;whiteSpace=wrap;html=1;aspect=fixed;fillColor=none;strokeWidth=2;strokeColor=light-dark(#deddda, #ededed);dashed=1;" vertex="1" parent="UyPcug_hA5FNu7lXV_sg-54">
          <mxGeometry x="40" y="40" width="320" height="320" as="geometry" />
        </mxCell>
        <mxCell id="UyPcug_hA5FNu7lXV_sg-57" value="" style="ellipse;whiteSpace=wrap;html=1;aspect=fixed;fillColor=none;strokeWidth=2;strokeColor=light-dark(#deddda, #ededed);dashed=1;" vertex="1" parent="UyPcug_hA5FNu7lXV_sg-54">
          <mxGeometry x="80" y="80" width="240" height="240" as="geometry" />
        </mxCell>
        <mxCell id="UyPcug_hA5FNu7lXV_sg-58" value="" style="ellipse;whiteSpace=wrap;html=1;aspect=fixed;fillColor=none;strokeWidth=2;strokeColor=light-dark(#deddda, #ededed);dashed=1;" vertex="1" parent="UyPcug_hA5FNu7lXV_sg-54">
          <mxGeometry x="120" y="120" width="160" height="160" as="geometry" />
        </mxCell>
        <mxCell id="UyPcug_hA5FNu7lXV_sg-60" style="edgeStyle=none;rounded=0;orthogonalLoop=1;jettySize=auto;html=1;exitX=0;exitY=0;exitDx=0;exitDy=0;entryX=1;entryY=1;entryDx=0;entryDy=0;strokeWidth=2;endArrow=none;startFill=0;" edge="1" parent="UyPcug_hA5FNu7lXV_sg-54" source="UyPcug_hA5FNu7lXV_sg-55" target="UyPcug_hA5FNu7lXV_sg-55">
          <mxGeometry relative="1" as="geometry" />
        </mxCell>
        <mxCell id="UyPcug_hA5FNu7lXV_sg-61" style="edgeStyle=none;rounded=0;orthogonalLoop=1;jettySize=auto;html=1;exitX=1;exitY=0;exitDx=0;exitDy=0;entryX=0;entryY=1;entryDx=0;entryDy=0;strokeWidth=2;endArrow=none;startFill=0;" edge="1" parent="UyPcug_hA5FNu7lXV_sg-54" source="UyPcug_hA5FNu7lXV_sg-55" target="UyPcug_hA5FNu7lXV_sg-55">
          <mxGeometry relative="1" as="geometry" />
        </mxCell>
        <mxCell id="UyPcug_hA5FNu7lXV_sg-62" value="" style="ellipse;whiteSpace=wrap;html=1;aspect=fixed;strokeWidth=2;fontColor=light-dark(#9a9996, #ededed);" vertex="1" parent="UyPcug_hA5FNu7lXV_sg-54">
          <mxGeometry x="160" y="160" width="80" height="80" as="geometry" />
        </mxCell>
        <mxCell id="UyPcug_hA5FNu7lXV_sg-65" value="A B C" style="text;html=1;align=center;verticalAlign=middle;whiteSpace=wrap;rounded=0;fontSize=18;fontStyle=0;rotation=-90;fontColor=light-dark(#1a192b, #ededed);" vertex="1" parent="UyPcug_hA5FNu7lXV_sg-54">
          <mxGeometry x="55" y="185" width="100" height="30" as="geometry" />
        </mxCell>
        <mxCell id="UyPcug_hA5FNu7lXV_sg-68" value="D E F" style="text;html=1;align=center;verticalAlign=middle;whiteSpace=wrap;rounded=0;fontSize=18;fontStyle=0;fontColor=light-dark(#1a192b, #ededed);" vertex="1" parent="UyPcug_hA5FNu7lXV_sg-54">
          <mxGeometry x="150" y="280" width="100" height="30" as="geometry" />
        </mxCell>
        <mxCell id="UyPcug_hA5FNu7lXV_sg-71" value="G H I" style="text;html=1;align=center;verticalAlign=middle;whiteSpace=wrap;rounded=0;fontSize=18;fontStyle=0;rotation=90;fontColor=light-dark(#1a192b, #ededed);" vertex="1" parent="UyPcug_hA5FNu7lXV_sg-54">
          <mxGeometry x="245" y="185" width="100" height="30" as="geometry" />
        </mxCell>
        <mxCell id="UyPcug_hA5FNu7lXV_sg-191" value="2#" style="text;html=1;align=center;verticalAlign=middle;whiteSpace=wrap;rounded=0;fontSize=18;fontStyle=0;fontColor=light-dark(#9a9996, #ededed);" vertex="1" parent="UyPcug_hA5FNu7lXV_sg-54">
          <mxGeometry x="65" y="320" width="50" height="30" as="geometry" />
        </mxCell>
        <mxCell id="UyPcug_hA5FNu7lXV_sg-192" value="3#" style="text;html=1;align=center;verticalAlign=middle;whiteSpace=wrap;rounded=0;fontSize=18;fontStyle=0;fontColor=light-dark(#9a9996, #ededed);" vertex="1" parent="UyPcug_hA5FNu7lXV_sg-54">
          <mxGeometry x="310" y="290" width="50" height="30" as="geometry" />
        </mxCell>
        <mxCell id="UyPcug_hA5FNu7lXV_sg-193" value="0#" style="text;html=1;align=center;verticalAlign=middle;whiteSpace=wrap;rounded=0;fontSize=18;fontStyle=0;fontColor=light-dark(#9a9996, #ededed);" vertex="1" parent="UyPcug_hA5FNu7lXV_sg-54">
          <mxGeometry x="285" y="50" width="50" height="30" as="geometry" />
        </mxCell>
        <mxCell id="UyPcug_hA5FNu7lXV_sg-194" value="1#" style="text;html=1;align=center;verticalAlign=middle;whiteSpace=wrap;rounded=0;fontSize=18;fontStyle=0;fontColor=light-dark(#9a9996, #ededed);" vertex="1" parent="UyPcug_hA5FNu7lXV_sg-54">
          <mxGeometry x="40" y="70" width="50" height="30" as="geometry" />
        </mxCell>
        <mxCell id="UyPcug_hA5FNu7lXV_sg-74" value="" style="group" vertex="1" connectable="0" parent="1">
          <mxGeometry x="746" y="250" width="30" height="110" as="geometry" />
        </mxCell>
        <mxCell id="UyPcug_hA5FNu7lXV_sg-75" value="" style="rounded=0;whiteSpace=wrap;html=1;fillColor=none;strokeColor=none;" vertex="1" parent="UyPcug_hA5FNu7lXV_sg-74">
          <mxGeometry width="30" height="110" as="geometry" />
        </mxCell>
        <mxCell id="UyPcug_hA5FNu7lXV_sg-78" value="" style="curved=1;endArrow=classic;html=1;rounded=0;strokeWidth=3;strokeColor=light-dark(#ffa348, #ededed);entryX=0;entryY=1;entryDx=0;entryDy=0;exitX=1;exitY=1;exitDx=0;exitDy=0;dashed=1;" edge="1" parent="UyPcug_hA5FNu7lXV_sg-74" source="UyPcug_hA5FNu7lXV_sg-75" target="UyPcug_hA5FNu7lXV_sg-75">
          <mxGeometry width="50" height="50" relative="1" as="geometry">
            <mxPoint x="-6" y="-60" as="sourcePoint" />
            <mxPoint x="24" y="-110" as="targetPoint" />
            <Array as="points">
              <mxPoint x="30" y="-50" />
              <mxPoint x="21.428571428571427" y="100" />
            </Array>
          </mxGeometry>
        </mxCell>
        <mxCell id="UyPcug_hA5FNu7lXV_sg-80" value="" style="group" vertex="1" connectable="0" parent="1">
          <mxGeometry x="220" y="250" width="30" height="110" as="geometry" />
        </mxCell>
        <mxCell id="UyPcug_hA5FNu7lXV_sg-81" value="" style="rounded=0;whiteSpace=wrap;html=1;fillColor=none;strokeColor=none;" vertex="1" parent="UyPcug_hA5FNu7lXV_sg-80">
          <mxGeometry width="30" height="110" as="geometry" />
        </mxCell>
        <mxCell id="UyPcug_hA5FNu7lXV_sg-82" value="" style="curved=1;endArrow=classic;html=1;rounded=0;strokeWidth=3;strokeColor=light-dark(#ffa348, #ededed);entryX=0;entryY=1;entryDx=0;entryDy=0;exitX=1;exitY=1;exitDx=0;exitDy=0;" edge="1" parent="UyPcug_hA5FNu7lXV_sg-80" source="UyPcug_hA5FNu7lXV_sg-81" target="UyPcug_hA5FNu7lXV_sg-81">
          <mxGeometry width="50" height="50" relative="1" as="geometry">
            <mxPoint x="-6" y="-60" as="sourcePoint" />
            <mxPoint x="24" y="-110" as="targetPoint" />
            <Array as="points">
              <mxPoint x="30" y="-50" />
              <mxPoint x="21.428571428571427" y="100" />
            </Array>
          </mxGeometry>
        </mxCell>
        <mxCell id="UyPcug_hA5FNu7lXV_sg-83" value="" style="group;strokeColor=none;" vertex="1" connectable="0" parent="1">
          <mxGeometry x="1080" y="160" width="425" height="400" as="geometry" />
        </mxCell>
        <mxCell id="UyPcug_hA5FNu7lXV_sg-84" value="" style="ellipse;whiteSpace=wrap;html=1;aspect=fixed;fillColor=none;strokeWidth=2;strokeColor=light-dark(#deddda, #ededed);dashed=1;" vertex="1" parent="UyPcug_hA5FNu7lXV_sg-83">
          <mxGeometry width="400" height="400" as="geometry" />
        </mxCell>
        <mxCell id="UyPcug_hA5FNu7lXV_sg-85" value="" style="ellipse;whiteSpace=wrap;html=1;aspect=fixed;fillColor=none;strokeWidth=2;strokeColor=light-dark(#deddda, #ededed);dashed=1;" vertex="1" parent="UyPcug_hA5FNu7lXV_sg-83">
          <mxGeometry x="40" y="40" width="320" height="320" as="geometry" />
        </mxCell>
        <mxCell id="UyPcug_hA5FNu7lXV_sg-86" value="" style="ellipse;whiteSpace=wrap;html=1;aspect=fixed;fillColor=none;strokeWidth=2;strokeColor=light-dark(#deddda, #ededed);dashed=1;" vertex="1" parent="UyPcug_hA5FNu7lXV_sg-83">
          <mxGeometry x="80" y="80" width="240" height="240" as="geometry" />
        </mxCell>
        <mxCell id="UyPcug_hA5FNu7lXV_sg-87" value="" style="ellipse;whiteSpace=wrap;html=1;aspect=fixed;fillColor=none;strokeWidth=2;strokeColor=light-dark(#deddda, #ededed);dashed=1;" vertex="1" parent="UyPcug_hA5FNu7lXV_sg-83">
          <mxGeometry x="120" y="120" width="160" height="160" as="geometry" />
        </mxCell>
        <mxCell id="UyPcug_hA5FNu7lXV_sg-88" style="edgeStyle=none;rounded=0;orthogonalLoop=1;jettySize=auto;html=1;exitX=0;exitY=0;exitDx=0;exitDy=0;entryX=1;entryY=1;entryDx=0;entryDy=0;strokeWidth=2;endArrow=none;startFill=0;" edge="1" parent="UyPcug_hA5FNu7lXV_sg-83" source="UyPcug_hA5FNu7lXV_sg-84" target="UyPcug_hA5FNu7lXV_sg-84">
          <mxGeometry relative="1" as="geometry" />
        </mxCell>
        <mxCell id="UyPcug_hA5FNu7lXV_sg-89" style="edgeStyle=none;rounded=0;orthogonalLoop=1;jettySize=auto;html=1;exitX=1;exitY=0;exitDx=0;exitDy=0;entryX=0;entryY=1;entryDx=0;entryDy=0;strokeWidth=2;endArrow=none;startFill=0;" edge="1" parent="UyPcug_hA5FNu7lXV_sg-83" source="UyPcug_hA5FNu7lXV_sg-84" target="UyPcug_hA5FNu7lXV_sg-84">
          <mxGeometry relative="1" as="geometry" />
        </mxCell>
        <mxCell id="UyPcug_hA5FNu7lXV_sg-90" value="" style="ellipse;whiteSpace=wrap;html=1;aspect=fixed;strokeWidth=2;fontColor=light-dark(#9a9996, #ededed);" vertex="1" parent="UyPcug_hA5FNu7lXV_sg-83">
          <mxGeometry x="160" y="160" width="80" height="80" as="geometry" />
        </mxCell>
        <mxCell id="UyPcug_hA5FNu7lXV_sg-92" value="D E F" style="text;html=1;align=center;verticalAlign=middle;whiteSpace=wrap;rounded=0;fontSize=18;fontStyle=0;fontColor=light-dark(#9a9996, #ededed);" vertex="1" parent="UyPcug_hA5FNu7lXV_sg-83">
          <mxGeometry x="150" y="280" width="100" height="30" as="geometry" />
        </mxCell>
        <mxCell id="UyPcug_hA5FNu7lXV_sg-93" value="G H I" style="text;html=1;align=center;verticalAlign=middle;whiteSpace=wrap;rounded=0;fontSize=18;fontStyle=0;rotation=90;fontColor=light-dark(#9a9996, #ededed);" vertex="1" parent="UyPcug_hA5FNu7lXV_sg-83">
          <mxGeometry x="245" y="185" width="100" height="30" as="geometry" />
        </mxCell>
        <mxCell id="UyPcug_hA5FNu7lXV_sg-100" value="" style="group" vertex="1" connectable="0" parent="UyPcug_hA5FNu7lXV_sg-83">
          <mxGeometry x="70" y="181" width="120" height="30" as="geometry" />
        </mxCell>
        <mxCell id="UyPcug_hA5FNu7lXV_sg-101" value="" style="rounded=0;whiteSpace=wrap;html=1;fillColor=none;strokeColor=none;" vertex="1" parent="UyPcug_hA5FNu7lXV_sg-100">
          <mxGeometry width="120" height="29.999999999999996" as="geometry" />
        </mxCell>
        <mxCell id="UyPcug_hA5FNu7lXV_sg-102" value="" style="curved=1;endArrow=classic;html=1;rounded=0;strokeWidth=3;strokeColor=light-dark(#57e389, #ededed);entryX=1;entryY=1;entryDx=0;entryDy=0;exitX=1;exitY=0;exitDx=0;exitDy=0;" edge="1" parent="UyPcug_hA5FNu7lXV_sg-100" source="UyPcug_hA5FNu7lXV_sg-101" target="UyPcug_hA5FNu7lXV_sg-101">
          <mxGeometry width="50" height="50" relative="1" as="geometry">
            <mxPoint x="154.28571428571428" y="90" as="sourcePoint" />
            <mxPoint x="96" y="-29.999999999999996" as="targetPoint" />
            <Array as="points">
              <mxPoint x="77.14285714285714" y="30" />
              <mxPoint x="-42.857142857142854" y="30" />
            </Array>
          </mxGeometry>
        </mxCell>
        <mxCell id="UyPcug_hA5FNu7lXV_sg-91" value="A B C" style="text;html=1;align=center;verticalAlign=middle;whiteSpace=wrap;rounded=0;fontSize=22;fontStyle=1;rotation=-90;fontColor=light-dark(#1a192b, #ededed);" vertex="1" parent="UyPcug_hA5FNu7lXV_sg-83">
          <mxGeometry x="55" y="185" width="100" height="30" as="geometry" />
        </mxCell>
        <mxCell id="UyPcug_hA5FNu7lXV_sg-195" value="2#" style="text;html=1;align=center;verticalAlign=middle;whiteSpace=wrap;rounded=0;fontSize=18;fontStyle=0;fontColor=light-dark(#9a9996, #ededed);" vertex="1" parent="UyPcug_hA5FNu7lXV_sg-83">
          <mxGeometry x="65" y="320" width="50" height="30" as="geometry" />
        </mxCell>
        <mxCell id="UyPcug_hA5FNu7lXV_sg-196" value="3#" style="text;html=1;align=center;verticalAlign=middle;whiteSpace=wrap;rounded=0;fontSize=18;fontStyle=0;fontColor=light-dark(#9a9996, #ededed);" vertex="1" parent="UyPcug_hA5FNu7lXV_sg-83">
          <mxGeometry x="310" y="290" width="50" height="30" as="geometry" />
        </mxCell>
        <mxCell id="UyPcug_hA5FNu7lXV_sg-197" value="0#" style="text;html=1;align=center;verticalAlign=middle;whiteSpace=wrap;rounded=0;fontSize=18;fontStyle=0;fontColor=light-dark(#9a9996, #ededed);" vertex="1" parent="UyPcug_hA5FNu7lXV_sg-83">
          <mxGeometry x="285" y="50" width="50" height="30" as="geometry" />
        </mxCell>
        <mxCell id="UyPcug_hA5FNu7lXV_sg-198" value="1#" style="text;html=1;align=center;verticalAlign=middle;whiteSpace=wrap;rounded=0;fontSize=18;fontStyle=0;fontColor=light-dark(#9a9996, #ededed);" vertex="1" parent="UyPcug_hA5FNu7lXV_sg-83">
          <mxGeometry x="40" y="70" width="50" height="30" as="geometry" />
        </mxCell>
        <mxCell id="UyPcug_hA5FNu7lXV_sg-94" value="" style="group" vertex="1" connectable="0" parent="1">
          <mxGeometry x="1264" y="234" width="30" height="110" as="geometry" />
        </mxCell>
        <mxCell id="UyPcug_hA5FNu7lXV_sg-95" value="" style="rounded=0;whiteSpace=wrap;html=1;fillColor=none;strokeColor=none;" vertex="1" parent="UyPcug_hA5FNu7lXV_sg-94">
          <mxGeometry width="30" height="110" as="geometry" />
        </mxCell>
        <mxCell id="UyPcug_hA5FNu7lXV_sg-96" value="" style="curved=1;endArrow=classic;html=1;rounded=0;strokeWidth=3;strokeColor=light-dark(#ffa348, #ededed);entryX=0;entryY=1;entryDx=0;entryDy=0;exitX=1;exitY=1;exitDx=0;exitDy=0;dashed=1;opacity=60;" edge="1" parent="UyPcug_hA5FNu7lXV_sg-94" source="UyPcug_hA5FNu7lXV_sg-95" target="UyPcug_hA5FNu7lXV_sg-95">
          <mxGeometry width="50" height="50" relative="1" as="geometry">
            <mxPoint x="-6" y="-60" as="sourcePoint" />
            <mxPoint x="24" y="-110" as="targetPoint" />
            <Array as="points">
              <mxPoint x="30" y="-50" />
              <mxPoint x="21.428571428571427" y="100" />
            </Array>
          </mxGeometry>
        </mxCell>
        <mxCell id="UyPcug_hA5FNu7lXV_sg-103" value="" style="group;strokeColor=none;" vertex="1" connectable="0" parent="1">
          <mxGeometry x="1080" y="660" width="425" height="400" as="geometry" />
        </mxCell>
        <mxCell id="UyPcug_hA5FNu7lXV_sg-104" value="" style="ellipse;whiteSpace=wrap;html=1;aspect=fixed;fillColor=none;strokeWidth=2;strokeColor=light-dark(#deddda, #ededed);dashed=1;" vertex="1" parent="UyPcug_hA5FNu7lXV_sg-103">
          <mxGeometry width="400" height="400" as="geometry" />
        </mxCell>
        <mxCell id="UyPcug_hA5FNu7lXV_sg-105" value="" style="ellipse;whiteSpace=wrap;html=1;aspect=fixed;fillColor=none;strokeWidth=2;strokeColor=light-dark(#deddda, #ededed);dashed=1;" vertex="1" parent="UyPcug_hA5FNu7lXV_sg-103">
          <mxGeometry x="40" y="40" width="320" height="320" as="geometry" />
        </mxCell>
        <mxCell id="UyPcug_hA5FNu7lXV_sg-106" value="" style="ellipse;whiteSpace=wrap;html=1;aspect=fixed;fillColor=none;strokeWidth=2;strokeColor=light-dark(#deddda, #ededed);dashed=1;" vertex="1" parent="UyPcug_hA5FNu7lXV_sg-103">
          <mxGeometry x="80" y="80" width="240" height="240" as="geometry" />
        </mxCell>
        <mxCell id="UyPcug_hA5FNu7lXV_sg-107" value="" style="ellipse;whiteSpace=wrap;html=1;aspect=fixed;fillColor=none;strokeWidth=2;strokeColor=light-dark(#deddda, #ededed);dashed=1;" vertex="1" parent="UyPcug_hA5FNu7lXV_sg-103">
          <mxGeometry x="120" y="120" width="160" height="160" as="geometry" />
        </mxCell>
        <mxCell id="UyPcug_hA5FNu7lXV_sg-108" style="edgeStyle=none;rounded=0;orthogonalLoop=1;jettySize=auto;html=1;exitX=0;exitY=0;exitDx=0;exitDy=0;entryX=1;entryY=1;entryDx=0;entryDy=0;strokeWidth=2;endArrow=none;startFill=0;" edge="1" parent="UyPcug_hA5FNu7lXV_sg-103" source="UyPcug_hA5FNu7lXV_sg-104" target="UyPcug_hA5FNu7lXV_sg-104">
          <mxGeometry relative="1" as="geometry" />
        </mxCell>
        <mxCell id="UyPcug_hA5FNu7lXV_sg-109" style="edgeStyle=none;rounded=0;orthogonalLoop=1;jettySize=auto;html=1;exitX=1;exitY=0;exitDx=0;exitDy=0;entryX=0;entryY=1;entryDx=0;entryDy=0;strokeWidth=2;endArrow=none;startFill=0;" edge="1" parent="UyPcug_hA5FNu7lXV_sg-103" source="UyPcug_hA5FNu7lXV_sg-104" target="UyPcug_hA5FNu7lXV_sg-104">
          <mxGeometry relative="1" as="geometry" />
        </mxCell>
        <mxCell id="UyPcug_hA5FNu7lXV_sg-110" value="" style="ellipse;whiteSpace=wrap;html=1;aspect=fixed;strokeWidth=2;fontColor=light-dark(#9a9996, #ededed);" vertex="1" parent="UyPcug_hA5FNu7lXV_sg-103">
          <mxGeometry x="160" y="160" width="80" height="80" as="geometry" />
        </mxCell>
        <mxCell id="UyPcug_hA5FNu7lXV_sg-113" value="" style="group" vertex="1" connectable="0" parent="UyPcug_hA5FNu7lXV_sg-103">
          <mxGeometry x="70" y="179" width="120" height="30" as="geometry" />
        </mxCell>
        <mxCell id="UyPcug_hA5FNu7lXV_sg-114" value="" style="rounded=0;whiteSpace=wrap;html=1;fillColor=none;strokeColor=none;" vertex="1" parent="UyPcug_hA5FNu7lXV_sg-113">
          <mxGeometry width="120" height="29.999999999999996" as="geometry" />
        </mxCell>
        <mxCell id="UyPcug_hA5FNu7lXV_sg-115" value="" style="curved=1;endArrow=classic;html=1;rounded=0;strokeWidth=3;strokeColor=light-dark(#57e389, #ededed);entryX=1;entryY=1;entryDx=0;entryDy=0;exitX=1;exitY=0;exitDx=0;exitDy=0;dashed=1;" edge="1" parent="UyPcug_hA5FNu7lXV_sg-113" source="UyPcug_hA5FNu7lXV_sg-114" target="UyPcug_hA5FNu7lXV_sg-114">
          <mxGeometry width="50" height="50" relative="1" as="geometry">
            <mxPoint x="154.28571428571428" y="90" as="sourcePoint" />
            <mxPoint x="96" y="-29.999999999999996" as="targetPoint" />
            <Array as="points">
              <mxPoint x="77.14285714285714" y="30" />
              <mxPoint x="-42.857142857142854" y="30" />
            </Array>
          </mxGeometry>
        </mxCell>
        <mxCell id="UyPcug_hA5FNu7lXV_sg-111" value="A" style="text;html=1;align=center;verticalAlign=middle;whiteSpace=wrap;rounded=0;fontSize=18;fontStyle=0;fontColor=light-dark(#1a192b, #ededed);" vertex="1" parent="UyPcug_hA5FNu7lXV_sg-103">
          <mxGeometry x="150" y="280" width="100" height="30" as="geometry" />
        </mxCell>
        <mxCell id="UyPcug_hA5FNu7lXV_sg-112" value="B" style="text;html=1;align=center;verticalAlign=middle;whiteSpace=wrap;rounded=0;fontSize=18;fontStyle=0;rotation=90;fontColor=light-dark(#1a192b, #ededed);" vertex="1" parent="UyPcug_hA5FNu7lXV_sg-103">
          <mxGeometry x="245" y="185" width="100" height="30" as="geometry" />
        </mxCell>
        <mxCell id="UyPcug_hA5FNu7lXV_sg-120" value="C" style="text;html=1;align=center;verticalAlign=middle;whiteSpace=wrap;rounded=0;fontSize=18;fontStyle=0;fontColor=light-dark(#1a192b, #ededed);" vertex="1" parent="UyPcug_hA5FNu7lXV_sg-103">
          <mxGeometry x="150" y="90" width="100" height="30" as="geometry" />
        </mxCell>
        <mxCell id="UyPcug_hA5FNu7lXV_sg-199" value="2#" style="text;html=1;align=center;verticalAlign=middle;whiteSpace=wrap;rounded=0;fontSize=18;fontStyle=0;fontColor=light-dark(#9a9996, #ededed);" vertex="1" parent="UyPcug_hA5FNu7lXV_sg-103">
          <mxGeometry x="65" y="320" width="50" height="30" as="geometry" />
        </mxCell>
        <mxCell id="UyPcug_hA5FNu7lXV_sg-200" value="3#" style="text;html=1;align=center;verticalAlign=middle;whiteSpace=wrap;rounded=0;fontSize=18;fontStyle=0;fontColor=light-dark(#9a9996, #ededed);" vertex="1" parent="UyPcug_hA5FNu7lXV_sg-103">
          <mxGeometry x="310" y="290" width="50" height="30" as="geometry" />
        </mxCell>
        <mxCell id="UyPcug_hA5FNu7lXV_sg-201" value="0#" style="text;html=1;align=center;verticalAlign=middle;whiteSpace=wrap;rounded=0;fontSize=18;fontStyle=0;fontColor=light-dark(#9a9996, #ededed);" vertex="1" parent="UyPcug_hA5FNu7lXV_sg-103">
          <mxGeometry x="285" y="50" width="50" height="30" as="geometry" />
        </mxCell>
        <mxCell id="UyPcug_hA5FNu7lXV_sg-202" value="1#" style="text;html=1;align=center;verticalAlign=middle;whiteSpace=wrap;rounded=0;fontSize=18;fontStyle=0;fontColor=light-dark(#9a9996, #ededed);" vertex="1" parent="UyPcug_hA5FNu7lXV_sg-103">
          <mxGeometry x="40" y="70" width="50" height="30" as="geometry" />
        </mxCell>
        <mxCell id="UyPcug_hA5FNu7lXV_sg-117" value="" style="group" vertex="1" connectable="0" parent="1">
          <mxGeometry x="1264" y="734" width="30" height="110" as="geometry" />
        </mxCell>
        <mxCell id="UyPcug_hA5FNu7lXV_sg-118" value="" style="rounded=0;whiteSpace=wrap;html=1;fillColor=none;strokeColor=none;" vertex="1" parent="UyPcug_hA5FNu7lXV_sg-117">
          <mxGeometry width="30" height="110" as="geometry" />
        </mxCell>
        <mxCell id="UyPcug_hA5FNu7lXV_sg-119" value="" style="curved=1;endArrow=classic;html=1;rounded=0;strokeWidth=3;strokeColor=light-dark(#ffa348, #ededed);entryX=0;entryY=1;entryDx=0;entryDy=0;exitX=1;exitY=1;exitDx=0;exitDy=0;dashed=1;opacity=60;" edge="1" parent="UyPcug_hA5FNu7lXV_sg-117" source="UyPcug_hA5FNu7lXV_sg-118" target="UyPcug_hA5FNu7lXV_sg-118">
          <mxGeometry width="50" height="50" relative="1" as="geometry">
            <mxPoint x="-6" y="-60" as="sourcePoint" />
            <mxPoint x="24" y="-110" as="targetPoint" />
            <Array as="points">
              <mxPoint x="30" y="-50" />
              <mxPoint x="21.428571428571427" y="100" />
            </Array>
          </mxGeometry>
        </mxCell>
        <mxCell id="UyPcug_hA5FNu7lXV_sg-138" value="" style="group;strokeColor=none;" vertex="1" connectable="0" parent="1">
          <mxGeometry x="560" y="660" width="425" height="400" as="geometry" />
        </mxCell>
        <mxCell id="UyPcug_hA5FNu7lXV_sg-139" value="" style="ellipse;whiteSpace=wrap;html=1;aspect=fixed;fillColor=none;strokeWidth=2;strokeColor=light-dark(#deddda, #ededed);dashed=1;" vertex="1" parent="UyPcug_hA5FNu7lXV_sg-138">
          <mxGeometry width="400" height="400" as="geometry" />
        </mxCell>
        <mxCell id="UyPcug_hA5FNu7lXV_sg-140" value="" style="ellipse;whiteSpace=wrap;html=1;aspect=fixed;fillColor=none;strokeWidth=2;strokeColor=light-dark(#deddda, #ededed);dashed=1;" vertex="1" parent="UyPcug_hA5FNu7lXV_sg-138">
          <mxGeometry x="40" y="40" width="320" height="320" as="geometry" />
        </mxCell>
        <mxCell id="UyPcug_hA5FNu7lXV_sg-141" value="" style="ellipse;whiteSpace=wrap;html=1;aspect=fixed;fillColor=none;strokeWidth=2;strokeColor=light-dark(#deddda, #ededed);dashed=1;" vertex="1" parent="UyPcug_hA5FNu7lXV_sg-138">
          <mxGeometry x="80" y="80" width="240" height="240" as="geometry" />
        </mxCell>
        <mxCell id="UyPcug_hA5FNu7lXV_sg-142" value="" style="ellipse;whiteSpace=wrap;html=1;aspect=fixed;fillColor=none;strokeWidth=2;strokeColor=light-dark(#deddda, #ededed);dashed=1;" vertex="1" parent="UyPcug_hA5FNu7lXV_sg-138">
          <mxGeometry x="120" y="120" width="160" height="160" as="geometry" />
        </mxCell>
        <mxCell id="UyPcug_hA5FNu7lXV_sg-143" style="edgeStyle=none;rounded=0;orthogonalLoop=1;jettySize=auto;html=1;exitX=0;exitY=0;exitDx=0;exitDy=0;entryX=1;entryY=1;entryDx=0;entryDy=0;strokeWidth=2;endArrow=none;startFill=0;" edge="1" parent="UyPcug_hA5FNu7lXV_sg-138" source="UyPcug_hA5FNu7lXV_sg-139" target="UyPcug_hA5FNu7lXV_sg-139">
          <mxGeometry relative="1" as="geometry" />
        </mxCell>
        <mxCell id="UyPcug_hA5FNu7lXV_sg-144" style="edgeStyle=none;rounded=0;orthogonalLoop=1;jettySize=auto;html=1;exitX=1;exitY=0;exitDx=0;exitDy=0;entryX=0;entryY=1;entryDx=0;entryDy=0;strokeWidth=2;endArrow=none;startFill=0;" edge="1" parent="UyPcug_hA5FNu7lXV_sg-138" source="UyPcug_hA5FNu7lXV_sg-139" target="UyPcug_hA5FNu7lXV_sg-139">
          <mxGeometry relative="1" as="geometry" />
        </mxCell>
        <mxCell id="UyPcug_hA5FNu7lXV_sg-145" value="" style="ellipse;whiteSpace=wrap;html=1;aspect=fixed;strokeWidth=2;fontColor=light-dark(#9a9996, #ededed);" vertex="1" parent="UyPcug_hA5FNu7lXV_sg-138">
          <mxGeometry x="160" y="160" width="80" height="80" as="geometry" />
        </mxCell>
        <mxCell id="UyPcug_hA5FNu7lXV_sg-146" value="" style="group" vertex="1" connectable="0" parent="UyPcug_hA5FNu7lXV_sg-138">
          <mxGeometry x="70" y="179" width="120" height="30" as="geometry" />
        </mxCell>
        <mxCell id="UyPcug_hA5FNu7lXV_sg-147" value="" style="rounded=0;whiteSpace=wrap;html=1;fillColor=none;strokeColor=none;" vertex="1" parent="UyPcug_hA5FNu7lXV_sg-146">
          <mxGeometry width="120" height="29.999999999999996" as="geometry" />
        </mxCell>
        <mxCell id="UyPcug_hA5FNu7lXV_sg-148" value="" style="curved=1;endArrow=classic;html=1;rounded=0;strokeWidth=3;strokeColor=light-dark(#57e389, #ededed);entryX=1;entryY=1;entryDx=0;entryDy=0;exitX=1;exitY=0;exitDx=0;exitDy=0;dashed=1;opacity=60;" edge="1" parent="UyPcug_hA5FNu7lXV_sg-146" source="UyPcug_hA5FNu7lXV_sg-147" target="UyPcug_hA5FNu7lXV_sg-147">
          <mxGeometry width="50" height="50" relative="1" as="geometry">
            <mxPoint x="154.28571428571428" y="90" as="sourcePoint" />
            <mxPoint x="96" y="-29.999999999999996" as="targetPoint" />
            <Array as="points">
              <mxPoint x="77.14285714285714" y="30" />
              <mxPoint x="-42.857142857142854" y="30" />
            </Array>
          </mxGeometry>
        </mxCell>
        <mxCell id="UyPcug_hA5FNu7lXV_sg-149" value="A" style="text;html=1;align=center;verticalAlign=middle;whiteSpace=wrap;rounded=0;fontSize=22;fontStyle=1;fontColor=light-dark(#1a192b, #ededed);" vertex="1" parent="UyPcug_hA5FNu7lXV_sg-138">
          <mxGeometry x="150" y="280" width="100" height="30" as="geometry" />
        </mxCell>
        <mxCell id="UyPcug_hA5FNu7lXV_sg-150" value="B" style="text;html=1;align=center;verticalAlign=middle;whiteSpace=wrap;rounded=0;fontSize=18;fontStyle=0;rotation=90;fontColor=light-dark(#9a9996, #ededed);" vertex="1" parent="UyPcug_hA5FNu7lXV_sg-138">
          <mxGeometry x="245" y="185" width="100" height="30" as="geometry" />
        </mxCell>
        <mxCell id="UyPcug_hA5FNu7lXV_sg-151" value="C" style="text;html=1;align=center;verticalAlign=middle;whiteSpace=wrap;rounded=0;fontSize=18;fontStyle=0;fontColor=light-dark(#9a9996, #ededed);" vertex="1" parent="UyPcug_hA5FNu7lXV_sg-138">
          <mxGeometry x="150" y="90" width="100" height="30" as="geometry" />
        </mxCell>
        <mxCell id="UyPcug_hA5FNu7lXV_sg-155" value="" style="group" vertex="1" connectable="0" parent="UyPcug_hA5FNu7lXV_sg-138">
          <mxGeometry x="188" y="209" width="30" height="90" as="geometry" />
        </mxCell>
        <mxCell id="UyPcug_hA5FNu7lXV_sg-156" value="" style="rounded=0;whiteSpace=wrap;html=1;fillColor=none;strokeColor=none;" vertex="1" parent="UyPcug_hA5FNu7lXV_sg-155">
          <mxGeometry width="30" height="90" as="geometry" />
        </mxCell>
        <mxCell id="UyPcug_hA5FNu7lXV_sg-157" value="" style="curved=1;endArrow=classic;html=1;rounded=0;strokeWidth=3;strokeColor=light-dark(#9141ac, #ededed);opacity=60;exitX=0;exitY=0;exitDx=0;exitDy=0;entryX=1;entryY=0;entryDx=0;entryDy=0;" edge="1" parent="UyPcug_hA5FNu7lXV_sg-155" source="UyPcug_hA5FNu7lXV_sg-156" target="UyPcug_hA5FNu7lXV_sg-156">
          <mxGeometry width="50" height="50" relative="1" as="geometry">
            <mxPoint x="120" y="-11.454545454545455" as="sourcePoint" />
            <mxPoint x="110" y="86.72727272727273" as="targetPoint" />
            <Array as="points">
              <mxPoint x="15" y="4.909090909090909" />
              <mxPoint x="30" y="135.8181818181818" />
            </Array>
          </mxGeometry>
        </mxCell>
        <mxCell id="UyPcug_hA5FNu7lXV_sg-203" value="2#" style="text;html=1;align=center;verticalAlign=middle;whiteSpace=wrap;rounded=0;fontSize=18;fontStyle=0;fontColor=light-dark(#9a9996, #ededed);" vertex="1" parent="UyPcug_hA5FNu7lXV_sg-138">
          <mxGeometry x="65" y="320" width="50" height="30" as="geometry" />
        </mxCell>
        <mxCell id="UyPcug_hA5FNu7lXV_sg-204" value="3#" style="text;html=1;align=center;verticalAlign=middle;whiteSpace=wrap;rounded=0;fontSize=18;fontStyle=0;fontColor=light-dark(#9a9996, #ededed);" vertex="1" parent="UyPcug_hA5FNu7lXV_sg-138">
          <mxGeometry x="310" y="290" width="50" height="30" as="geometry" />
        </mxCell>
        <mxCell id="UyPcug_hA5FNu7lXV_sg-205" value="0#" style="text;html=1;align=center;verticalAlign=middle;whiteSpace=wrap;rounded=0;fontSize=18;fontStyle=0;fontColor=light-dark(#9a9996, #ededed);" vertex="1" parent="UyPcug_hA5FNu7lXV_sg-138">
          <mxGeometry x="285" y="50" width="50" height="30" as="geometry" />
        </mxCell>
        <mxCell id="UyPcug_hA5FNu7lXV_sg-206" value="1#" style="text;html=1;align=center;verticalAlign=middle;whiteSpace=wrap;rounded=0;fontSize=18;fontStyle=0;fontColor=light-dark(#9a9996, #ededed);" vertex="1" parent="UyPcug_hA5FNu7lXV_sg-138">
          <mxGeometry x="40" y="70" width="50" height="30" as="geometry" />
        </mxCell>
        <mxCell id="UyPcug_hA5FNu7lXV_sg-152" value="" style="group" vertex="1" connectable="0" parent="1">
          <mxGeometry x="744" y="734" width="30" height="110" as="geometry" />
        </mxCell>
        <mxCell id="UyPcug_hA5FNu7lXV_sg-153" value="" style="rounded=0;whiteSpace=wrap;html=1;fillColor=none;strokeColor=none;" vertex="1" parent="UyPcug_hA5FNu7lXV_sg-152">
          <mxGeometry width="30" height="110" as="geometry" />
        </mxCell>
        <mxCell id="UyPcug_hA5FNu7lXV_sg-154" value="" style="curved=1;endArrow=classic;html=1;rounded=0;strokeWidth=3;strokeColor=light-dark(#ffa348, #ededed);entryX=0;entryY=1;entryDx=0;entryDy=0;exitX=1;exitY=1;exitDx=0;exitDy=0;dashed=1;opacity=60;" edge="1" parent="UyPcug_hA5FNu7lXV_sg-152" source="UyPcug_hA5FNu7lXV_sg-153" target="UyPcug_hA5FNu7lXV_sg-153">
          <mxGeometry width="50" height="50" relative="1" as="geometry">
            <mxPoint x="-6" y="-60" as="sourcePoint" />
            <mxPoint x="24" y="-110" as="targetPoint" />
            <Array as="points">
              <mxPoint x="30" y="-50" />
              <mxPoint x="21.428571428571427" y="100" />
            </Array>
          </mxGeometry>
        </mxCell>
        <mxCell id="UyPcug_hA5FNu7lXV_sg-158" value="" style="group;strokeColor=none;" vertex="1" connectable="0" parent="1">
          <mxGeometry x="40" y="660" width="425" height="400" as="geometry" />
        </mxCell>
        <mxCell id="UyPcug_hA5FNu7lXV_sg-159" value="" style="ellipse;whiteSpace=wrap;html=1;aspect=fixed;fillColor=none;strokeWidth=2;strokeColor=light-dark(#deddda, #ededed);dashed=1;" vertex="1" parent="UyPcug_hA5FNu7lXV_sg-158">
          <mxGeometry width="400" height="400" as="geometry" />
        </mxCell>
        <mxCell id="UyPcug_hA5FNu7lXV_sg-160" value="" style="ellipse;whiteSpace=wrap;html=1;aspect=fixed;fillColor=none;strokeWidth=2;strokeColor=light-dark(#deddda, #ededed);dashed=1;" vertex="1" parent="UyPcug_hA5FNu7lXV_sg-158">
          <mxGeometry x="40" y="40" width="320" height="320" as="geometry" />
        </mxCell>
        <mxCell id="UyPcug_hA5FNu7lXV_sg-161" value="" style="ellipse;whiteSpace=wrap;html=1;aspect=fixed;fillColor=none;strokeWidth=2;strokeColor=light-dark(#deddda, #ededed);dashed=1;" vertex="1" parent="UyPcug_hA5FNu7lXV_sg-158">
          <mxGeometry x="80" y="80" width="240" height="240" as="geometry" />
        </mxCell>
        <mxCell id="UyPcug_hA5FNu7lXV_sg-162" value="" style="ellipse;whiteSpace=wrap;html=1;aspect=fixed;fillColor=none;strokeWidth=2;strokeColor=light-dark(#deddda, #ededed);dashed=1;" vertex="1" parent="UyPcug_hA5FNu7lXV_sg-158">
          <mxGeometry x="120" y="120" width="160" height="160" as="geometry" />
        </mxCell>
        <mxCell id="UyPcug_hA5FNu7lXV_sg-163" value="G H I" style="text;html=1;align=center;verticalAlign=middle;whiteSpace=wrap;rounded=0;fontSize=18;fontStyle=0;fontColor=light-dark(#9a9996, #ededed);" vertex="1" parent="UyPcug_hA5FNu7lXV_sg-158">
          <mxGeometry x="150" y="10" width="100" height="30" as="geometry" />
        </mxCell>
        <mxCell id="UyPcug_hA5FNu7lXV_sg-164" style="edgeStyle=none;rounded=0;orthogonalLoop=1;jettySize=auto;html=1;exitX=0;exitY=0;exitDx=0;exitDy=0;entryX=1;entryY=1;entryDx=0;entryDy=0;strokeWidth=2;endArrow=none;startFill=0;" edge="1" parent="UyPcug_hA5FNu7lXV_sg-158" source="UyPcug_hA5FNu7lXV_sg-159" target="UyPcug_hA5FNu7lXV_sg-159">
          <mxGeometry relative="1" as="geometry" />
        </mxCell>
        <mxCell id="UyPcug_hA5FNu7lXV_sg-165" style="edgeStyle=none;rounded=0;orthogonalLoop=1;jettySize=auto;html=1;exitX=1;exitY=0;exitDx=0;exitDy=0;entryX=0;entryY=1;entryDx=0;entryDy=0;strokeWidth=2;endArrow=none;startFill=0;" edge="1" parent="UyPcug_hA5FNu7lXV_sg-158" source="UyPcug_hA5FNu7lXV_sg-159" target="UyPcug_hA5FNu7lXV_sg-159">
          <mxGeometry relative="1" as="geometry" />
        </mxCell>
        <mxCell id="UyPcug_hA5FNu7lXV_sg-166" value="" style="ellipse;whiteSpace=wrap;html=1;aspect=fixed;strokeWidth=2;" vertex="1" parent="UyPcug_hA5FNu7lXV_sg-158">
          <mxGeometry x="160" y="160" width="80" height="80" as="geometry" />
        </mxCell>
        <mxCell id="UyPcug_hA5FNu7lXV_sg-167" value="A B C" style="text;html=1;align=center;verticalAlign=middle;whiteSpace=wrap;rounded=0;fontSize=18;fontStyle=0;fontColor=light-dark(#9a9996, #ededed);" vertex="1" parent="UyPcug_hA5FNu7lXV_sg-158">
          <mxGeometry x="150" y="90" width="100" height="30" as="geometry" />
        </mxCell>
        <mxCell id="UyPcug_hA5FNu7lXV_sg-168" value="D E F" style="text;html=1;align=center;verticalAlign=middle;whiteSpace=wrap;rounded=0;fontSize=18;fontStyle=0;fontColor=light-dark(#9a9996, #ededed);" vertex="1" parent="UyPcug_hA5FNu7lXV_sg-158">
          <mxGeometry x="150" y="50" width="100" height="30" as="geometry" />
        </mxCell>
        <mxCell id="UyPcug_hA5FNu7lXV_sg-170" value="M N O" style="text;html=1;align=center;verticalAlign=middle;whiteSpace=wrap;rounded=0;fontSize=22;fontStyle=1;rotation=-90;fontColor=light-dark(#1a192b, #ededed);" vertex="1" parent="UyPcug_hA5FNu7lXV_sg-158">
          <mxGeometry x="15" y="185" width="100" height="30" as="geometry" />
        </mxCell>
        <mxCell id="UyPcug_hA5FNu7lXV_sg-171" value="P Q R" style="text;html=1;align=center;verticalAlign=middle;whiteSpace=wrap;rounded=0;fontSize=22;fontStyle=1;rotation=-90;fontColor=light-dark(#1a192b, #ededed);" vertex="1" parent="UyPcug_hA5FNu7lXV_sg-158">
          <mxGeometry x="-25" y="185" width="100" height="30" as="geometry" />
        </mxCell>
        <mxCell id="UyPcug_hA5FNu7lXV_sg-172" value="S T U" style="text;html=1;align=center;verticalAlign=middle;whiteSpace=wrap;rounded=0;fontSize=18;fontStyle=0;fontColor=light-dark(#9a9996, #ededed);" vertex="1" parent="UyPcug_hA5FNu7lXV_sg-158">
          <mxGeometry x="150" y="280" width="100" height="30" as="geometry" />
        </mxCell>
        <mxCell id="UyPcug_hA5FNu7lXV_sg-173" value="V W X" style="text;html=1;align=center;verticalAlign=middle;whiteSpace=wrap;rounded=0;fontSize=18;fontStyle=0;fontColor=light-dark(#9a9996, #ededed);" vertex="1" parent="UyPcug_hA5FNu7lXV_sg-158">
          <mxGeometry x="150" y="320" width="100" height="30" as="geometry" />
        </mxCell>
        <mxCell id="UyPcug_hA5FNu7lXV_sg-174" value="Y Z" style="text;html=1;align=center;verticalAlign=middle;whiteSpace=wrap;rounded=0;fontSize=18;fontStyle=0;fontColor=light-dark(#9a9996, #ededed);" vertex="1" parent="UyPcug_hA5FNu7lXV_sg-158">
          <mxGeometry x="150" y="360" width="100" height="30" as="geometry" />
        </mxCell>
        <mxCell id="UyPcug_hA5FNu7lXV_sg-175" value="小写" style="text;html=1;align=center;verticalAlign=middle;whiteSpace=wrap;rounded=0;fontSize=18;fontStyle=0;rotation=90;fontColor=light-dark(#9a9996, #ededed);" vertex="1" parent="UyPcug_hA5FNu7lXV_sg-158">
          <mxGeometry x="245" y="185" width="100" height="30" as="geometry" />
        </mxCell>
        <mxCell id="UyPcug_hA5FNu7lXV_sg-176" value="符号" style="text;html=1;align=center;verticalAlign=middle;whiteSpace=wrap;rounded=0;fontSize=18;fontStyle=0;rotation=90;fontColor=light-dark(#9a9996, #ededed);" vertex="1" parent="UyPcug_hA5FNu7lXV_sg-158">
          <mxGeometry x="285" y="185" width="100" height="30" as="geometry" />
        </mxCell>
        <mxCell id="UyPcug_hA5FNu7lXV_sg-177" value="表情" style="text;html=1;align=center;verticalAlign=middle;whiteSpace=wrap;rounded=0;fontSize=18;fontStyle=0;rotation=90;fontColor=light-dark(#9a9996, #ededed);" vertex="1" parent="UyPcug_hA5FNu7lXV_sg-158">
          <mxGeometry x="325" y="185" width="100" height="30" as="geometry" />
        </mxCell>
        <mxCell id="UyPcug_hA5FNu7lXV_sg-178" value="" style="group;rotation=-90;" vertex="1" connectable="0" parent="UyPcug_hA5FNu7lXV_sg-158">
          <mxGeometry x="130" y="150" width="30" height="110" as="geometry" />
        </mxCell>
        <mxCell id="UyPcug_hA5FNu7lXV_sg-179" value="" style="rounded=0;whiteSpace=wrap;html=1;fillColor=none;strokeColor=none;rotation=-90;" vertex="1" parent="UyPcug_hA5FNu7lXV_sg-178">
          <mxGeometry width="30" height="110" as="geometry" />
        </mxCell>
        <mxCell id="UyPcug_hA5FNu7lXV_sg-180" value="" style="curved=1;endArrow=classic;html=1;rounded=0;strokeWidth=3;strokeColor=light-dark(#ffa348, #ededed);entryX=0;entryY=1;entryDx=0;entryDy=0;exitX=1;exitY=1;exitDx=0;exitDy=0;" edge="1" parent="UyPcug_hA5FNu7lXV_sg-178" source="UyPcug_hA5FNu7lXV_sg-179" target="UyPcug_hA5FNu7lXV_sg-179">
          <mxGeometry width="50" height="50" relative="1" as="geometry">
            <mxPoint x="-100" y="76" as="sourcePoint" />
            <mxPoint x="-150" y="46" as="targetPoint" />
            <Array as="points">
              <mxPoint x="-90" y="40" />
              <mxPoint x="60" y="49" />
            </Array>
          </mxGeometry>
        </mxCell>
        <mxCell id="UyPcug_hA5FNu7lXV_sg-169" value="J K L" style="text;html=1;align=center;verticalAlign=middle;whiteSpace=wrap;rounded=0;fontSize=22;fontStyle=1;rotation=-90;fontColor=light-dark(#1a192b, #ededed);" vertex="1" parent="UyPcug_hA5FNu7lXV_sg-158">
          <mxGeometry x="55" y="185" width="100" height="30" as="geometry" />
        </mxCell>
        <mxCell id="UyPcug_hA5FNu7lXV_sg-207" value="2#" style="text;html=1;align=center;verticalAlign=middle;whiteSpace=wrap;rounded=0;fontSize=18;fontStyle=0;fontColor=light-dark(#9a9996, #ededed);" vertex="1" parent="UyPcug_hA5FNu7lXV_sg-158">
          <mxGeometry x="65" y="320" width="50" height="30" as="geometry" />
        </mxCell>
        <mxCell id="UyPcug_hA5FNu7lXV_sg-208" value="3#" style="text;html=1;align=center;verticalAlign=middle;whiteSpace=wrap;rounded=0;fontSize=18;fontStyle=0;fontColor=light-dark(#9a9996, #ededed);" vertex="1" parent="UyPcug_hA5FNu7lXV_sg-158">
          <mxGeometry x="310" y="290" width="50" height="30" as="geometry" />
        </mxCell>
        <mxCell id="UyPcug_hA5FNu7lXV_sg-209" value="0#" style="text;html=1;align=center;verticalAlign=middle;whiteSpace=wrap;rounded=0;fontSize=18;fontStyle=0;fontColor=light-dark(#9a9996, #ededed);" vertex="1" parent="UyPcug_hA5FNu7lXV_sg-158">
          <mxGeometry x="285" y="50" width="50" height="30" as="geometry" />
        </mxCell>
        <mxCell id="UyPcug_hA5FNu7lXV_sg-210" value="1#" style="text;html=1;align=center;verticalAlign=middle;whiteSpace=wrap;rounded=0;fontSize=18;fontStyle=0;fontColor=light-dark(#9a9996, #ededed);" vertex="1" parent="UyPcug_hA5FNu7lXV_sg-158">
          <mxGeometry x="40" y="70" width="50" height="30" as="geometry" />
        </mxCell>
        <mxCell id="UyPcug_hA5FNu7lXV_sg-181" value="" style="shape=flexArrow;endArrow=classic;html=1;rounded=0;strokeColor=none;fillColor=light-dark(#62a0ea, #ededed);" edge="1" parent="1">
          <mxGeometry width="50" height="50" relative="1" as="geometry">
            <mxPoint x="460" y="359" as="sourcePoint" />
            <mxPoint x="540" y="359" as="targetPoint" />
          </mxGeometry>
        </mxCell>
        <mxCell id="UyPcug_hA5FNu7lXV_sg-182" value="" style="shape=flexArrow;endArrow=classic;html=1;rounded=0;strokeColor=none;fillColor=light-dark(#62a0ea, #ededed);" edge="1" parent="1">
          <mxGeometry width="50" height="50" relative="1" as="geometry">
            <mxPoint x="980" y="359" as="sourcePoint" />
            <mxPoint x="1060" y="359" as="targetPoint" />
          </mxGeometry>
        </mxCell>
        <mxCell id="UyPcug_hA5FNu7lXV_sg-183" value="" style="shape=flexArrow;endArrow=classic;html=1;rounded=0;strokeColor=none;fillColor=light-dark(#62a0ea, #ededed);" edge="1" parent="1">
          <mxGeometry width="50" height="50" relative="1" as="geometry">
            <mxPoint x="1278.41" y="580" as="sourcePoint" />
            <mxPoint x="1278.41" y="640" as="targetPoint" />
          </mxGeometry>
        </mxCell>
        <mxCell id="UyPcug_hA5FNu7lXV_sg-184" value="" style="shape=flexArrow;endArrow=classic;html=1;rounded=0;strokeColor=none;fillColor=light-dark(#62a0ea, #ededed);" edge="1" parent="1">
          <mxGeometry width="50" height="50" relative="1" as="geometry">
            <mxPoint x="1060" y="859.41" as="sourcePoint" />
            <mxPoint x="980" y="859.41" as="targetPoint" />
          </mxGeometry>
        </mxCell>
        <mxCell id="UyPcug_hA5FNu7lXV_sg-185" value="" style="shape=flexArrow;endArrow=classic;html=1;rounded=0;strokeColor=none;fillColor=light-dark(#62a0ea, #ededed);" edge="1" parent="1">
          <mxGeometry width="50" height="50" relative="1" as="geometry">
            <mxPoint x="540" y="859.41" as="sourcePoint" />
            <mxPoint x="460" y="859.41" as="targetPoint" />
          </mxGeometry>
        </mxCell>
      </root>
    </mxGraphModel>
  </diagram>
</mxfile>
